# xmcd
#
# Track frame offsets:
#	150
#	12667
#	32847
#	49125
#	54702
#	64127
#	79085
#	97192
#	114660
#	119945
#	135410
#	154930
#	173075
#
# Disc length: 2526 seconds
#
# Revision: 1
# Processed by: cddbd v1.4PL0 Copyright (c) Steve Scherf et al.
# Submitted via: audiograbber 1.81.03
#
DISCID=bd09dc0d
DTITLE=Lucille - Lucille
DYEAR=1981
DGENRE=Blues
TTITLE0=Beggar Blues
TTITLE1=What Goes Around, Comes Around
TTITLE2=River Of Green
TTITLE3=Napoleon Bonaparte
TTITLE4=The Dog And Me
TTITLE5=Black Land Mud
TTITLE6=Saucey
TTITLE7=I'd Rather Be Here
TTITLE8=I'm Coming Home For Christmas
TTITLE9=Texas Flyer
TTITLE10=What The Blues Is
TTITLE11=We All Want To Boogie
TTITLE12=Say It In The Dark
EXTD=
EXTT0=
EXTT1=
EXTT2=
EXTT3=
EXTT4=
EXTT5=
EXTT6=
EXTT7=
EXTT8=
EXTT9=
EXTT10=
EXTT11=
EXTT12=
PLAYORDER=
